<svg width="24" height="24" viewBox="0 0 24 24" fill="none" xmlns="http://www.w3.org/2000/svg">
<path d="M12.1856 5C12.3061 5 12.4188 5.01914 12.5226 5.05762C12.6263 5.09596 12.7249 5.16229 12.8185 5.25586L15.7224 8.15975C16.0641 8.50147 15.9335 9.08949 15.5118 9.32561C15.2355 9.48036 14.8881 9.44857 14.6642 9.22461L12.9356 7.49609V11.9678C12.4572 12.8731 12.1856 13.9048 12.1856 15C12.1856 16.0949 12.4575 17.1261 12.9356 18.0312V18.873C12.9356 19.0859 12.8635 19.2637 12.7198 19.4072C12.5763 19.5508 12.3984 19.623 12.1856 19.623C11.9729 19.623 11.7949 19.5508 11.6515 19.4072C11.5079 19.2638 11.4357 19.0858 11.4356 18.873V7.49609L6.28233 12.6504C6.12718 12.8053 5.94847 12.8828 5.74717 12.8828C5.54622 12.8828 5.36804 12.8051 5.21299 12.6504C5.06819 12.4952 4.99694 12.3148 5.0001 12.1104C5.0033 11.9059 5.07455 11.7342 5.21299 11.5957L11.5528 5.25586C11.6465 5.16222 11.7459 5.09596 11.8497 5.05762C11.9534 5.01925 12.0654 5.00002 12.1856 5Z" fill="#F9F9F9" fill-opacity="0.8"/>
<path fill-rule="evenodd" clip-rule="evenodd" d="M18.6847 10.5C19.3069 10.5 19.892 10.6184 20.4396 10.8545C20.9872 11.0907 21.4642 11.4115 21.8692 11.8164C22.2741 12.2212 22.5949 12.697 22.8312 13.2441C23.0674 13.7915 23.1856 14.3767 23.1856 14.999C23.1856 15.6213 23.0673 16.2063 22.8312 16.7539C22.5949 17.3015 22.2741 17.7785 21.8692 18.1836C21.4645 18.5884 20.9886 18.9092 20.4415 19.1455C19.8942 19.3817 19.3089 19.5 18.6866 19.5C18.0644 19.5 17.4793 19.3816 16.9317 19.1455C16.3842 18.9093 15.9071 18.5885 15.5021 18.1836C15.0972 17.7788 14.7764 17.303 14.5401 16.7559C14.3039 16.2085 14.1857 15.6232 14.1856 15.001C14.1856 14.3787 14.304 13.7937 14.5401 13.2461C14.7763 12.6985 15.0972 12.2215 15.5021 11.8164C15.9068 11.4116 16.3827 11.0908 16.9298 10.8545C17.4771 10.6182 18.0625 10.5 18.6847 10.5ZM18.8614 11.793C18.8057 11.7845 18.7654 11.8057 18.7403 11.8564L17.1808 15.4033C17.1495 15.4763 17.1547 15.5446 17.1964 15.6074C17.2382 15.67 17.2977 15.7011 17.3741 15.7012H18.4728V18.0752C18.4728 18.1357 18.5007 18.1708 18.5567 18.1797C18.6128 18.1884 18.6538 18.1671 18.6788 18.1162L20.2384 14.5781C20.2695 14.5054 20.2643 14.4377 20.2228 14.375C20.181 14.3123 20.1215 14.2803 20.045 14.2803H18.9464V11.8975C18.9464 11.8367 18.9176 11.8018 18.8614 11.793Z" fill="#F9F9F9" fill-opacity="0.8"/>
</svg>